<svg id="visual" viewBox="0 0 1400 1700" width="1400" height="1700" xmlns="http://www.w3.org/2000/svg" xmlns:xlink="http://www.w3.org/1999/xlink" version="1.1"><path d="M321 0L329.3 56.7C337.7 113.3 354.3 226.7 380.7 340C407 453.3 443 566.7 444 680C445 793.3 411 906.7 379.7 1020C348.3 1133.3 319.7 1246.7 335.8 1360C352 1473.3 413 1586.7 443.5 1643.3L474 1700L0 1700L0 1643.3C0 1586.7 0 1473.3 0 1360C0 1246.7 0 1133.3 0 1020C0 906.7 0 793.3 0 680C0 566.7 0 453.3 0 340C0 226.7 0 113.3 0 56.7L0 0Z" fill="#FFCC00" stroke-linecap="round" stroke-linejoin="miter"></path></svg>